<?xml version="1.0" encoding="iso-8859-1"?><!DOCTYPE svg PUBLIC "-//W3C//DTD SVG 1.1//EN" "http://www.w3.org/Graphics/SVG/1.1/DTD/svg11.dtd"><svg viewBox="0 0 640 512" xmlns="http://www.w3.org/2000/svg" xmlns:xlink="http://www.w3.org/1999/xlink"><style>:root>svg{display:none}:root>svg:target{display:block}</style><svg viewBox="0 0 451.847 451.847" id="arrow-down" xmlns="http://www.w3.org/2000/svg"><path d="M225.923 354.706c-8.098 0-16.195-3.092-22.369-9.263L9.27 151.157c-12.359-12.359-12.359-32.397 0-44.751 12.354-12.354 32.388-12.354 44.748 0l171.905 171.915 171.906-171.909c12.359-12.354 32.391-12.354 44.744 0 12.365 12.354 12.365 32.392 0 44.751L248.292 345.449c-6.177 6.172-14.274 9.257-22.369 9.257z"/></svg><svg viewBox="0 0 22 38" id="arrow-right" xmlns="http://www.w3.org/2000/svg"><path d="M20.586 17.068L5.021 1.295a2.714 2.714 0 00-3.905 0c-.512.523-.8 1.23-.8 1.968s.288 1.445.8 1.968L14.73 19.19 1.116 33.009c-.512.523-.8 1.23-.8 1.968a2.813 2.813 0 001.694 2.585c.335.144.695.219 1.059.22a2.713 2.713 0 001.059-.22c.335-.143.638-.353.893-.617l15.565-15.773c.28-.262.502-.579.654-.932a2.83 2.83 0 000-2.24 2.792 2.792 0 00-.654-.932z" fill-opacity=".4"/></svg><svg viewBox="0 0 36.375 36.376" id="download" xmlns="http://www.w3.org/2000/svg"><path d="M33.938 25.626v8.25c0 1.383-1.119 2.5-2.5 2.5h-26.5a2.498 2.498 0 01-2.5-2.5v-8.25a2.5 2.5 0 115 0v5.75h21.5v-5.75a2.5 2.5 0 115 0zM16.42 27.768a2.494 2.494 0 001.768.732c.643 0 1.279-.244 1.77-.732l7.5-7.498a2.496 2.496 0 000-3.535 2.498 2.498 0 00-3.535 0l-3.231 3.232V2.5a2.5 2.5 0 10-5 0v17.467l-3.232-3.232a2.498 2.498 0 00-3.535 0 2.498 2.498 0 000 3.535l7.495 7.498z"/></svg><svg viewBox="0 0 24 24" id="eye" xmlns="http://www.w3.org/2000/svg"><path d="M15 12c0 1.654-1.346 3-3 3s-3-1.346-3-3 1.346-3 3-3 3 1.346 3 3zm9-.449S19.748 20 12.015 20C4.835 20 0 11.551 0 11.551S4.446 4 12.015 4C19.709 4 24 11.551 24 11.551zM17 12c0-2.757-2.243-5-5-5s-5 2.243-5 5 2.243 5 5 5 5-2.243 5-5z"/></svg><svg viewBox="0 0 640 512" id="eye-slash"><path d="M634 471L36 3.51A16 16 0 0013.51 6l-10 12.49A16 16 0 006 41l598 467.49a16 16 0 0022.49-2.49l10-12.49A16 16 0 00634 471zM296.79 146.47l134.79 105.38C429.36 191.91 380.48 144 320 144a112.26 112.26 0 00-23.21 2.47zm46.42 219.07L208.42 260.16C210.65 320.09 259.53 368 320 368a113 113 0 0023.21-2.46zM320 112c98.65 0 189.09 55 237.93 144a285.53 285.53 0 01-44 60.2l37.74 29.5a333.7 333.7 0 0052.9-75.11 32.35 32.35 0 000-29.19C550.29 135.59 442.93 64 320 64c-36.7 0-71.71 7-104.63 18.81l46.41 36.29c18.94-4.3 38.34-7.1 58.22-7.1zm0 288c-98.65 0-189.08-55-237.93-144a285.47 285.47 0 0144.05-60.19l-37.74-29.5a333.6 333.6 0 00-52.89 75.1 32.35 32.35 0 000 29.19C89.72 376.41 197.08 448 320 448c36.7 0 71.71-7.05 104.63-18.81l-46.41-36.28C359.28 397.2 339.89 400 320 400z"/></svg><svg viewBox="0 0 320 512" id="facebook"><path d="M279.14 288l14.22-92.66h-88.91v-60.13c0-25.35 12.42-50.06 52.24-50.06h40.42V6.26S260.43 0 225.36 0c-73.22 0-121.08 44.38-121.08 124.72v70.62H22.89V288h81.39v224h100.17V288z"/></svg><svg viewBox="0 0 448 512" id="instagram"><path d="M224.1 141c-63.6 0-114.9 51.3-114.9 114.9s51.3 114.9 114.9 114.9S339 319.5 339 255.9 287.7 141 224.1 141zm0 189.6c-41.1 0-74.7-33.5-74.7-74.7s33.5-74.7 74.7-74.7 74.7 33.5 74.7 74.7-33.6 74.7-74.7 74.7zm146.4-194.3c0 14.9-12 26.8-26.8 26.8-14.9 0-26.8-12-26.8-26.8s12-26.8 26.8-26.8 26.8 12 26.8 26.8zm76.1 27.2c-1.7-35.9-9.9-67.7-36.2-93.9-26.2-26.2-58-34.4-93.9-36.2-37-2.1-147.9-2.1-184.9 0-35.8 1.7-67.6 9.9-93.9 36.1s-34.4 58-36.2 93.9c-2.1 37-2.1 147.9 0 184.9 1.7 35.9 9.9 67.7 36.2 93.9s58 34.4 93.9 36.2c37 2.1 147.9 2.1 184.9 0 35.9-1.7 67.7-9.9 93.9-36.2 26.2-26.2 34.4-58 36.2-93.9 2.1-37 2.1-147.8 0-184.8zM398.8 388c-7.8 19.6-22.9 34.7-42.6 42.6-29.5 11.7-99.5 9-132.1 9s-102.7 2.6-132.1-9c-19.6-7.8-34.7-22.9-42.6-42.6-11.7-29.5-9-99.5-9-132.1s-2.6-102.7 9-132.1c7.8-19.6 22.9-34.7 42.6-42.6 29.5-11.7 99.5-9 132.1-9s102.7-2.6 132.1 9c19.6 7.8 34.7 22.9 42.6 42.6 11.7 29.5 9 99.5 9 132.1s2.7 102.7-9 132.1z"/></svg><svg viewBox="0 0 297 297" id="logout" xmlns="http://www.w3.org/2000/svg"><path d="M155 6.5c-30.147 0-58.95 9.335-83.294 26.995a6.586 6.586 0 00-1.739 8.787L92.83 79.374a6.587 6.587 0 009.473 1.875c14.23-10.323 31.069-15.78 48.698-15.78 45.783 0 83.03 37.247 83.03 83.03s-37.247 83.03-83.03 83.03c-17.629 0-34.468-5.456-48.698-15.78a6.583 6.583 0 00-9.473 1.875l-22.863 37.093a6.586 6.586 0 001.739 8.787C96.05 281.165 124.853 290.5 155 290.5c78.299 0 142-63.701 142-142s-63.701-142-142-142z"/><path d="M90.401 201.757a6.583 6.583 0 00-.326-6.76l-15.463-23.195h93.566c12.849 0 23.302-10.453 23.302-23.302s-10.453-23.302-23.302-23.302H74.612l15.463-23.195a6.585 6.585 0 00-5.48-10.238H40.019a6.584 6.584 0 00-5.479 2.933L1.106 144.847a6.584 6.584 0 000 7.306l33.433 50.149a6.586 6.586 0 005.479 2.933h44.577a6.583 6.583 0 005.806-3.478z"/></svg><svg viewBox="0 0 23 20" id="mark-down" xmlns="http://www.w3.org/2000/svg"><path d="M11.757 19.846L.6.982h22.314L11.757 19.846z"/></svg><svg viewBox="0 0 325 325.6" id="settings" xmlns="http://www.w3.org/2000/svg"><path d="M252.049 298.292l-9.6-18.6c14.5-11.4 26.1-25.5 34.5-41.2l20.1 6.4c7.3 2.3 15.1-1.7 17.5-9.1l6.5-20.5c2.3-7.3-1.7-15.1-9.1-17.5l-20.2-6.4c2.1-17.6.7-35.7-4.6-53.4l18.9-9.8c6.8-3.5 9.5-11.9 6-18.8l-9.9-19.1c-3.5-6.8-11.9-9.5-18.8-6l-18.9 9.8c-11.3-14.5-25.3-26.1-40.9-34.6l6.4-20.2c2.3-7.3-1.7-15.1-9.1-17.5l-20.5-6.5c-7.3-2.3-15.1 1.7-17.5 9.1l-6.4 20.1c-17.7-2.2-35.9-.8-53.6 4.4l-9.6-18.6c-3.5-6.8-11.9-9.5-18.8-6l-19.1 9.9c-6.8 3.5-9.5 11.9-6 18.8l9.5 18.4c-14.4 11.7-26.1 25.8-34.6 41.5l-19.6-6.2c-7.3-2.3-15.1 1.7-17.5 9.1l-6.5 20.5c-2.3 7.3 1.7 15.1 9.1 17.5l19.5 6.2c-2.2 17.8-.8 36.2 4.5 54l-18.1 9.4c-6.8 3.5-9.5 11.9-6 18.8l9.9 19.1c3.5 6.8 11.9 9.5 18.8 6l18.1-9.4c11.5 14.6 25.7 26.4 41.5 34.9l-6.2 19.5c-2.3 7.3 1.7 15.1 9.1 17.5l20.5 6.5c7.3 2.3 15.1-1.7 17.5-9.1l6.2-19.6c17.7 2.1 36 .6 53.8-4.8l9.5 18.4c3.5 6.8 11.9 9.5 18.8 6l19.1-9.9c6.7-3.8 9.3-12.2 5.8-19zm-66.2-135.8c7.6 14.7 1.9 32.7-12.8 40.3s-32.7 1.9-40.3-12.8c-7.6-14.7-1.9-32.7 12.8-40.3s32.7-1.9 40.3 12.8zm-65.9-65.6c8.6-4.5 17.6-7.4 26.7-8.8l-1.2 27.3c-5.1 1.2-10.1 3-14.9 5.5-25.6 13.2-38.1 41.8-32.4 68.7l-22.5 11.5c-12-40.1 5.8-84.3 44.3-104.2zm81.7 157.8c-38.7 20-85.3 8.9-111-24.3l22.6-11.7c18.6 20.2 49.2 26.4 74.8 13.2 4.9-2.6 9.4-5.7 13.3-9.3l23.5 14.9c-6.6 6.7-14.3 12.6-23.2 17.2zm17.3-59.9c4.7-15.2 3.7-32.1-4.2-47.3-7.9-15.3-21.3-25.9-36.5-30.8l1.2-27.8c25 5.4 47.6 21.5 60.3 46 12.6 24.3 12.9 51.7 3.1 75.1l-23.9-15.2z"/></svg><svg viewBox="0 0 361.014 361.014" id="support" xmlns="http://www.w3.org/2000/svg"><path d="M331.035 126.94H318.01c-3.563 0-3.682-2.333-3.805-3.494C307.375 59.094 252.77 8.791 186.637 8.791h-12.26c-65.644 0-119.929 49.56-127.409 113.229-.191 1.631-.291 4.92-3.291 4.92H29.978C20.987 126.94 0 136.401 0 184.18v25.075c0 35.436 20.987 43.609 29.978 43.609h43.584c8.991 0 16.347-7.356 16.347-16.347v-93.23c0-8.991-7.356-16.347-16.347-16.347 0 0-2.052-.18-1.529-3.835 7.192-50.319 50.129-89.313 102.344-89.313h12.26c51.86 0 94.912 38.418 102.2 88.288.235 1.608 1.111 4.86-1.385 4.86-8.991 0-16.347 7.356-16.347 16.347v93.23c0 8.991 7.356 16.347 16.347 16.347h8.184c2.25 0 1.868 1.798 1.667 2.704-6.667 30.104-21.637 64.256-55.238 64.256h-24.889c-2.54 0-3.167-1.861-3.65-2.743-4.032-7.367-11.851-12.364-20.841-12.364h-22.933c-13.118 0-23.753 10.634-23.753 23.753s10.635 23.752 23.753 23.752h22.933c9.112 0 17.023-5.132 21.005-12.662.348-.658.633-2.026 3.321-2.026h25.054c22.823 0 53.365-11.341 69.259-65.373 1.694-5.758 3.068-11.496 4.187-17.026.154-.761.25-2.27 2.625-2.27h12.9c8.991 0 29.978-8.174 29.978-43.609v-25.075c-.001-47.099-20.988-57.241-29.979-57.241z"/></svg><svg viewBox="0 0 576 512" id="vk"><path d="M545 117.7c3.7-12.5 0-21.7-17.8-21.7h-58.9c-15 0-21.9 7.9-25.6 16.7 0 0-30 73.1-72.4 120.5-13.7 13.7-20 18.1-27.5 18.1-3.7 0-9.4-4.4-9.4-16.9V117.7c0-15-4.2-21.7-16.6-21.7h-92.6c-9.4 0-15 7-15 13.5 0 14.2 21.2 17.5 23.4 57.5v86.8c0 19-3.4 22.5-10.9 22.5-20 0-68.6-73.4-97.4-157.4-5.8-16.3-11.5-22.9-26.6-22.9H38.8c-16.8 0-20.2 7.9-20.2 16.7 0 15.6 20 93.1 93.1 195.5C160.4 378.1 229 416 291.4 416c37.5 0 42.1-8.4 42.1-22.9 0-66.8-3.4-73.1 15.4-73.1 8.7 0 23.7 4.4 58.7 38.1 40 40 46.6 57.9 69 57.9h58.9c16.8 0 25.3-8.4 20.4-25-11.2-34.9-86.9-106.7-90.3-111.5-8.7-11.2-6.2-16.2 0-26.2.1-.1 72-101.3 79.4-135.6z"/></svg></svg>